<mxfile host="app.diagrams.net" agent="Mozilla/5.0 (Windows NT 10.0; Win64; x64) AppleWebKit/537.36 (KHTML, like Gecko) Chrome/137.0.0.0 Safari/537.36" version="27.0.1">
  <diagram id="Ht1M8jgEwFfnCIfOTk4-" name="Page-1">
    <mxGraphModel dx="1554" dy="815" grid="1" gridSize="10" guides="1" tooltips="1" connect="1" arrows="1" fold="1" page="1" pageScale="1" pageWidth="1169" pageHeight="827" math="0" shadow="0">
      <root>
        <mxCell id="0" />
        <mxCell id="1" parent="0" />
        <mxCell id="-QjtrjUzRDEMRZ5MF8oH-47" value="AI Home Decorator" style="text;html=1;resizable=0;points=[];autosize=1;align=left;verticalAlign=top;spacingTop=-4;fontSize=30;fontStyle=1" parent="1" vertex="1">
          <mxGeometry x="56.5" y="64.5" width="280" height="40" as="geometry" />
        </mxCell>
        <mxCell id="-QjtrjUzRDEMRZ5MF8oH-48" value="Jeremy Schur" style="text;html=1;resizable=0;points=[];autosize=1;align=left;verticalAlign=top;spacingTop=-4;fontSize=16;" parent="1" vertex="1">
          <mxGeometry x="56.5" y="114.5" width="120" height="30" as="geometry" />
        </mxCell>
        <mxCell id="SCVMTBWpLvtzJIhz15lM-1" value="" style="line;strokeWidth=2;html=1;fontSize=14;" parent="1" vertex="1">
          <mxGeometry x="52.5" y="139.5" width="1060" height="10" as="geometry" />
        </mxCell>
        <mxCell id="jsZd8_SP3bw1mpOkr9sn-1" value="App" style="rounded=0;whiteSpace=wrap;html=1;" vertex="1" parent="1">
          <mxGeometry x="70" y="367.5" width="120" height="60" as="geometry" />
        </mxCell>
        <mxCell id="jsZd8_SP3bw1mpOkr9sn-2" value="" style="endArrow=classic;startArrow=classic;html=1;rounded=0;" edge="1" parent="1">
          <mxGeometry width="50" height="50" relative="1" as="geometry">
            <mxPoint x="200" y="399.5" as="sourcePoint" />
            <mxPoint x="270" y="399.5" as="targetPoint" />
          </mxGeometry>
        </mxCell>
        <mxCell id="jsZd8_SP3bw1mpOkr9sn-3" value="&lt;b&gt;&lt;font style=&quot;font-size: 14px;&quot;&gt;High Level Architecture&lt;/font&gt;&lt;/b&gt;" style="text;html=1;align=center;verticalAlign=middle;resizable=0;points=[];autosize=1;strokeColor=none;fillColor=none;" vertex="1" parent="1">
          <mxGeometry x="40" y="174.5" width="180" height="30" as="geometry" />
        </mxCell>
        <mxCell id="jsZd8_SP3bw1mpOkr9sn-9" value="API Gateway" style="rounded=0;whiteSpace=wrap;html=1;fillColor=#f5f5f5;fontColor=#333333;strokeColor=#666666;" vertex="1" parent="1">
          <mxGeometry x="280" y="367.5" width="120" height="60" as="geometry" />
        </mxCell>
        <mxCell id="jsZd8_SP3bw1mpOkr9sn-10" value="" style="endArrow=classic;startArrow=classic;html=1;rounded=0;" edge="1" parent="1">
          <mxGeometry width="50" height="50" relative="1" as="geometry">
            <mxPoint x="410" y="400" as="sourcePoint" />
            <mxPoint x="480" y="400" as="targetPoint" />
          </mxGeometry>
        </mxCell>
        <mxCell id="jsZd8_SP3bw1mpOkr9sn-11" value="Load Balancer" style="rounded=0;whiteSpace=wrap;html=1;fillColor=#647687;fontColor=#ffffff;strokeColor=#314354;" vertex="1" parent="1">
          <mxGeometry x="490" y="306.75" width="60" height="181.5" as="geometry" />
        </mxCell>
        <mxCell id="jsZd8_SP3bw1mpOkr9sn-15" value="" style="endArrow=classic;html=1;rounded=0;" edge="1" parent="1">
          <mxGeometry width="50" height="50" relative="1" as="geometry">
            <mxPoint x="600" y="397" as="sourcePoint" />
            <mxPoint x="560" y="397" as="targetPoint" />
          </mxGeometry>
        </mxCell>
        <mxCell id="jsZd8_SP3bw1mpOkr9sn-16" value="" style="endArrow=none;html=1;rounded=0;curved=0;strokeWidth=3;" edge="1" parent="1">
          <mxGeometry width="50" height="50" relative="1" as="geometry">
            <mxPoint x="600" y="740" as="sourcePoint" />
            <mxPoint x="600" y="272.5" as="targetPoint" />
          </mxGeometry>
        </mxCell>
        <mxCell id="jsZd8_SP3bw1mpOkr9sn-19" value="User Service" style="rounded=0;whiteSpace=wrap;html=1;fillColor=#a0522d;fontColor=#ffffff;strokeColor=#6D1F00;" vertex="1" parent="1">
          <mxGeometry x="670" y="270" width="120" height="60" as="geometry" />
        </mxCell>
        <mxCell id="jsZd8_SP3bw1mpOkr9sn-21" value="" style="rounded=0;whiteSpace=wrap;html=1;fillColor=#0050ef;strokeColor=#001DBC;fontColor=#ffffff;" vertex="1" parent="1">
          <mxGeometry x="890" y="237.5" width="270" height="120" as="geometry" />
        </mxCell>
        <mxCell id="jsZd8_SP3bw1mpOkr9sn-22" value="" style="shape=cylinder3;whiteSpace=wrap;html=1;boundedLbl=1;backgroundOutline=1;size=15;fillColor=light-dark(#FFFFFF,#FFFFFF);strokeColor=light-dark(#000000,#000000);" vertex="1" parent="1">
          <mxGeometry x="900" y="260" width="60" height="80" as="geometry" />
        </mxCell>
        <mxCell id="jsZd8_SP3bw1mpOkr9sn-23" value="&lt;font style=&quot;color: light-dark(rgb(0, 0, 0), rgb(0, 0, 0));&quot;&gt;SQL Database&lt;/font&gt;" style="text;html=1;align=center;verticalAlign=middle;whiteSpace=wrap;rounded=0;" vertex="1" parent="1">
          <mxGeometry x="982.5" y="230" width="85" height="30" as="geometry" />
        </mxCell>
        <mxCell id="jsZd8_SP3bw1mpOkr9sn-25" value="" style="shape=cylinder3;whiteSpace=wrap;html=1;boundedLbl=1;backgroundOutline=1;size=15;fillColor=light-dark(#FFFFFF,#FFFFFF);strokeColor=light-dark(#000000,#000000);" vertex="1" parent="1">
          <mxGeometry x="995" y="260" width="60" height="80" as="geometry" />
        </mxCell>
        <mxCell id="jsZd8_SP3bw1mpOkr9sn-26" value="" style="shape=cylinder3;whiteSpace=wrap;html=1;boundedLbl=1;backgroundOutline=1;size=15;fillColor=light-dark(#FFFFFF,#FFFFFF);strokeColor=light-dark(#000000,#000000);" vertex="1" parent="1">
          <mxGeometry x="1090" y="260" width="60" height="80" as="geometry" />
        </mxCell>
        <mxCell id="jsZd8_SP3bw1mpOkr9sn-27" value="&lt;font style=&quot;color: light-dark(rgb(0, 0, 0), rgb(0, 0, 0));&quot;&gt;Slave&lt;/font&gt;" style="text;html=1;align=center;verticalAlign=middle;whiteSpace=wrap;rounded=0;" vertex="1" parent="1">
          <mxGeometry x="1100" y="296.75" width="40" height="30" as="geometry" />
        </mxCell>
        <mxCell id="jsZd8_SP3bw1mpOkr9sn-28" value="&lt;font style=&quot;color: light-dark(rgb(0, 0, 0), rgb(0, 0, 0));&quot;&gt;Slave&lt;/font&gt;" style="text;html=1;align=center;verticalAlign=middle;whiteSpace=wrap;rounded=0;" vertex="1" parent="1">
          <mxGeometry x="1001.25" y="296.75" width="47.5" height="30" as="geometry" />
        </mxCell>
        <mxCell id="jsZd8_SP3bw1mpOkr9sn-29" value="&lt;font style=&quot;color: light-dark(rgb(0, 0, 0), rgb(0, 0, 0));&quot;&gt;Master&lt;/font&gt;" style="text;html=1;align=center;verticalAlign=middle;whiteSpace=wrap;rounded=0;" vertex="1" parent="1">
          <mxGeometry x="903.75" y="296.75" width="52.5" height="30" as="geometry" />
        </mxCell>
        <mxCell id="jsZd8_SP3bw1mpOkr9sn-32" value="Like, Comment, Favorite Service" style="rounded=0;whiteSpace=wrap;html=1;fillColor=#a0522d;fontColor=#ffffff;strokeColor=#6D1F00;" vertex="1" parent="1">
          <mxGeometry x="670" y="470" width="120" height="60" as="geometry" />
        </mxCell>
        <mxCell id="jsZd8_SP3bw1mpOkr9sn-33" value="" style="shape=cylinder3;whiteSpace=wrap;html=1;boundedLbl=1;backgroundOutline=1;size=15;" vertex="1" parent="1">
          <mxGeometry x="893.75" y="465" width="146.25" height="70" as="geometry" />
        </mxCell>
        <mxCell id="jsZd8_SP3bw1mpOkr9sn-36" value="" style="endArrow=none;html=1;rounded=0;strokeWidth=3;" edge="1" parent="1">
          <mxGeometry width="50" height="50" relative="1" as="geometry">
            <mxPoint x="840" y="720" as="sourcePoint" />
            <mxPoint x="840" y="300" as="targetPoint" />
          </mxGeometry>
        </mxCell>
        <mxCell id="jsZd8_SP3bw1mpOkr9sn-38" value="" style="endArrow=classic;startArrow=classic;html=1;rounded=0;entryX=0;entryY=0.5;entryDx=0;entryDy=0;" edge="1" parent="1" target="jsZd8_SP3bw1mpOkr9sn-19">
          <mxGeometry width="50" height="50" relative="1" as="geometry">
            <mxPoint x="600" y="300" as="sourcePoint" />
            <mxPoint x="660" y="306.25" as="targetPoint" />
          </mxGeometry>
        </mxCell>
        <mxCell id="jsZd8_SP3bw1mpOkr9sn-39" value="" style="endArrow=classic;startArrow=classic;html=1;rounded=0;entryX=0;entryY=0.5;entryDx=0;entryDy=0;" edge="1" parent="1">
          <mxGeometry width="50" height="50" relative="1" as="geometry">
            <mxPoint x="600" y="499.5" as="sourcePoint" />
            <mxPoint x="670" y="499.5" as="targetPoint" />
          </mxGeometry>
        </mxCell>
        <mxCell id="jsZd8_SP3bw1mpOkr9sn-40" value="" style="endArrow=classic;startArrow=classic;html=1;rounded=0;exitX=1;exitY=0.5;exitDx=0;exitDy=0;entryX=0;entryY=0.5;entryDx=0;entryDy=0;entryPerimeter=0;" edge="1" parent="1" source="jsZd8_SP3bw1mpOkr9sn-32" target="jsZd8_SP3bw1mpOkr9sn-33">
          <mxGeometry width="50" height="50" relative="1" as="geometry">
            <mxPoint x="810" y="504.5" as="sourcePoint" />
            <mxPoint x="870" y="504.5" as="targetPoint" />
          </mxGeometry>
        </mxCell>
        <mxCell id="jsZd8_SP3bw1mpOkr9sn-41" value="" style="endArrow=classic;startArrow=classic;html=1;rounded=0;entryX=0;entryY=0.5;entryDx=0;entryDy=0;exitX=1;exitY=0.5;exitDx=0;exitDy=0;" edge="1" parent="1" source="jsZd8_SP3bw1mpOkr9sn-19" target="jsZd8_SP3bw1mpOkr9sn-21">
          <mxGeometry width="50" height="50" relative="1" as="geometry">
            <mxPoint x="810" y="290" as="sourcePoint" />
            <mxPoint x="890" y="299.5" as="targetPoint" />
          </mxGeometry>
        </mxCell>
        <mxCell id="jsZd8_SP3bw1mpOkr9sn-42" value="NoSQL Database" style="text;html=1;align=center;verticalAlign=middle;whiteSpace=wrap;rounded=0;" vertex="1" parent="1">
          <mxGeometry x="913.38" y="500" width="107" height="30" as="geometry" />
        </mxCell>
        <mxCell id="jsZd8_SP3bw1mpOkr9sn-43" value="Like, Comment, Favorite Service" style="rounded=0;whiteSpace=wrap;html=1;fillColor=#a0522d;fontColor=#ffffff;strokeColor=#6D1F00;" vertex="1" parent="1">
          <mxGeometry x="670" y="570" width="120" height="60" as="geometry" />
        </mxCell>
        <mxCell id="jsZd8_SP3bw1mpOkr9sn-44" value="" style="endArrow=classic;startArrow=classic;html=1;rounded=0;entryX=0;entryY=0.5;entryDx=0;entryDy=0;" edge="1" parent="1" target="jsZd8_SP3bw1mpOkr9sn-43">
          <mxGeometry width="50" height="50" relative="1" as="geometry">
            <mxPoint x="600" y="600" as="sourcePoint" />
            <mxPoint x="510" y="610" as="targetPoint" />
          </mxGeometry>
        </mxCell>
        <mxCell id="jsZd8_SP3bw1mpOkr9sn-45" value="" style="endArrow=classic;startArrow=classic;html=1;rounded=0;exitX=1;exitY=0.5;exitDx=0;exitDy=0;" edge="1" parent="1" source="jsZd8_SP3bw1mpOkr9sn-43">
          <mxGeometry width="50" height="50" relative="1" as="geometry">
            <mxPoint x="940" y="650" as="sourcePoint" />
            <mxPoint x="840" y="600" as="targetPoint" />
          </mxGeometry>
        </mxCell>
        <mxCell id="jsZd8_SP3bw1mpOkr9sn-46" value="Image Service" style="rounded=0;whiteSpace=wrap;html=1;fillColor=#a0522d;fontColor=#ffffff;strokeColor=#6D1F00;" vertex="1" parent="1">
          <mxGeometry x="670" y="690" width="120" height="60" as="geometry" />
        </mxCell>
        <mxCell id="jsZd8_SP3bw1mpOkr9sn-47" value="" style="endArrow=classic;startArrow=classic;html=1;rounded=0;exitX=1;exitY=0.5;exitDx=0;exitDy=0;" edge="1" parent="1" source="jsZd8_SP3bw1mpOkr9sn-46">
          <mxGeometry width="50" height="50" relative="1" as="geometry">
            <mxPoint x="920" y="730" as="sourcePoint" />
            <mxPoint x="840" y="720" as="targetPoint" />
          </mxGeometry>
        </mxCell>
        <mxCell id="jsZd8_SP3bw1mpOkr9sn-48" value="" style="endArrow=classic;startArrow=classic;html=1;rounded=0;entryX=0;entryY=0.5;entryDx=0;entryDy=0;" edge="1" parent="1" target="jsZd8_SP3bw1mpOkr9sn-46">
          <mxGeometry width="50" height="50" relative="1" as="geometry">
            <mxPoint x="600" y="720" as="sourcePoint" />
            <mxPoint x="520" y="710" as="targetPoint" />
          </mxGeometry>
        </mxCell>
        <mxCell id="jsZd8_SP3bw1mpOkr9sn-49" value="" style="endArrow=classic;startArrow=classic;html=1;rounded=0;entryX=0.5;entryY=1;entryDx=0;entryDy=0;" edge="1" parent="1" target="jsZd8_SP3bw1mpOkr9sn-46">
          <mxGeometry width="50" height="50" relative="1" as="geometry">
            <mxPoint x="730" y="1030" as="sourcePoint" />
            <mxPoint x="740" y="770" as="targetPoint" />
          </mxGeometry>
        </mxCell>
        <mxCell id="jsZd8_SP3bw1mpOkr9sn-50" value="S3" style="rounded=0;whiteSpace=wrap;html=1;fillColor=#d5e8d4;strokeColor=#82b366;" vertex="1" parent="1">
          <mxGeometry x="670" y="1030" width="120" height="60" as="geometry" />
        </mxCell>
        <mxCell id="jsZd8_SP3bw1mpOkr9sn-51" value="" style="shape=cylinder3;whiteSpace=wrap;html=1;boundedLbl=1;backgroundOutline=1;size=15;rotation=90;fillColor=#76608a;fontColor=#ffffff;strokeColor=#432D57;" vertex="1" parent="1">
          <mxGeometry x="890" y="810" width="60" height="130" as="geometry" />
        </mxCell>
        <mxCell id="jsZd8_SP3bw1mpOkr9sn-52" value="&lt;font style=&quot;color: light-dark(rgb(0, 0, 0), rgb(0, 0, 0));&quot;&gt;Queue&lt;/font&gt;" style="text;html=1;align=center;verticalAlign=middle;whiteSpace=wrap;rounded=0;" vertex="1" parent="1">
          <mxGeometry x="880" y="860" width="60" height="30" as="geometry" />
        </mxCell>
        <mxCell id="jsZd8_SP3bw1mpOkr9sn-53" value="" style="endArrow=classic;startArrow=classic;html=1;rounded=0;entryX=0.5;entryY=1;entryDx=0;entryDy=0;entryPerimeter=0;" edge="1" parent="1" target="jsZd8_SP3bw1mpOkr9sn-51">
          <mxGeometry width="50" height="50" relative="1" as="geometry">
            <mxPoint x="730" y="875" as="sourcePoint" />
            <mxPoint x="580" y="840" as="targetPoint" />
          </mxGeometry>
        </mxCell>
        <mxCell id="jsZd8_SP3bw1mpOkr9sn-54" value="" style="endArrow=classic;html=1;rounded=0;exitX=1;exitY=0.5;exitDx=0;exitDy=0;exitPerimeter=0;" edge="1" parent="1" source="jsZd8_SP3bw1mpOkr9sn-51">
          <mxGeometry width="50" height="50" relative="1" as="geometry">
            <mxPoint x="940" y="980" as="sourcePoint" />
            <mxPoint x="920" y="960" as="targetPoint" />
          </mxGeometry>
        </mxCell>
        <mxCell id="jsZd8_SP3bw1mpOkr9sn-55" value="Image Processing Worker" style="rounded=0;whiteSpace=wrap;html=1;fillColor=#e51400;fontColor=#ffffff;strokeColor=#B20000;" vertex="1" parent="1">
          <mxGeometry x="860" y="960" width="120" height="60" as="geometry" />
        </mxCell>
        <mxCell id="jsZd8_SP3bw1mpOkr9sn-56" value="AI/ML Model" style="rounded=0;whiteSpace=wrap;html=1;fillColor=#fa6800;fontColor=#000000;strokeColor=#C73500;" vertex="1" parent="1">
          <mxGeometry x="1030" y="960" width="120" height="60" as="geometry" />
        </mxCell>
        <mxCell id="jsZd8_SP3bw1mpOkr9sn-57" value="" style="endArrow=classic;startArrow=classic;html=1;rounded=0;exitX=1;exitY=0.5;exitDx=0;exitDy=0;entryX=0;entryY=0.5;entryDx=0;entryDy=0;" edge="1" parent="1" source="jsZd8_SP3bw1mpOkr9sn-55" target="jsZd8_SP3bw1mpOkr9sn-56">
          <mxGeometry width="50" height="50" relative="1" as="geometry">
            <mxPoint x="1000" y="930" as="sourcePoint" />
            <mxPoint x="1050" y="880" as="targetPoint" />
          </mxGeometry>
        </mxCell>
        <mxCell id="jsZd8_SP3bw1mpOkr9sn-58" value="" style="endArrow=classic;startArrow=classic;html=1;rounded=0;entryX=0;entryY=0.5;entryDx=0;entryDy=0;" edge="1" parent="1" target="jsZd8_SP3bw1mpOkr9sn-55">
          <mxGeometry width="50" height="50" relative="1" as="geometry">
            <mxPoint x="730" y="990" as="sourcePoint" />
            <mxPoint x="610" y="940" as="targetPoint" />
          </mxGeometry>
        </mxCell>
      </root>
    </mxGraphModel>
  </diagram>
</mxfile>
